<svg width="204" height="67" viewBox="0 0 204 67" fill="none" xmlns="http://www.w3.org/2000/svg">
<rect y="10" width="204" height="53" rx="10" fill="black"/>
<path d="M46.73 49.875C47.0967 50.5717 47.28 51.195 47.28 51.745C47.3167 52.2583 47.17 52.7167 46.84 53.12C46.51 53.4867 45.96 53.8717 45.19 54.275C44.0167 54.825 43.1 54.9717 42.44 54.715C41.8167 54.4583 41.23 53.7433 40.68 52.57L28.415 26.665L16.205 52.57C15.655 53.7067 15.05 54.385 14.39 54.605C13.73 54.8617 12.8133 54.7333 11.64 54.22C10.9067 53.8533 10.3567 53.4683 9.99 53.065C9.66 52.6617 9.51333 52.185 9.55 51.635C9.62333 51.0483 9.86167 50.3517 10.265 49.545L25.39 18.03C25.6833 17.4433 26.105 16.985 26.655 16.655C27.2417 16.2883 27.8467 16.105 28.47 16.105C28.91 16.105 29.3133 16.1783 29.68 16.325C30.0467 16.4717 30.3767 16.6917 30.67 16.985C31 17.2783 31.275 17.645 31.495 18.085L46.73 49.875ZM18.625 44.54L21.265 38.875H35.62L38.26 44.54H18.625ZM53.938 54.55C52.948 54.55 52.2147 54.385 51.738 54.055C51.298 53.7617 51.023 53.3583 50.913 52.845C50.803 52.3317 50.748 51.7633 50.748 51.14V30.735C50.748 30.075 50.803 29.5067 50.913 29.03C51.023 28.5167 51.298 28.1317 51.738 27.875C52.2147 27.5817 52.9663 27.435 53.993 27.435C54.983 27.435 55.698 27.5633 56.138 27.82C56.6147 28.0767 56.908 28.4067 57.018 28.81C57.1647 29.1767 57.238 29.5433 57.238 29.91L56.798 30.9C56.9813 30.6067 57.238 30.2583 57.568 29.855C57.898 29.415 58.338 28.9933 58.888 28.59C59.438 28.15 60.098 27.8017 60.868 27.545C61.638 27.2517 62.5547 27.105 63.618 27.105C64.058 27.105 64.5163 27.16 64.993 27.27C65.5063 27.3433 66.0013 27.4717 66.478 27.655C66.9913 27.8017 67.4497 28.0033 67.853 28.26C68.2563 28.5167 68.568 28.8283 68.788 29.195C69.008 29.525 69.118 29.91 69.118 30.35C69.118 31.5233 68.8247 32.5133 68.238 33.32C67.6513 34.1267 66.9547 34.53 66.148 34.53C65.598 34.53 65.1947 34.475 64.938 34.365C64.6813 34.255 64.4613 34.1267 64.278 33.98C64.1313 33.8333 63.893 33.705 63.563 33.595C63.2697 33.485 62.793 33.43 62.133 33.43C61.583 33.43 61.0147 33.5217 60.428 33.705C59.878 33.8883 59.3647 34.1633 58.888 34.53C58.4113 34.8967 58.0263 35.3733 57.733 35.96C57.4397 36.51 57.293 37.1517 57.293 37.885V51.25C57.293 51.8733 57.238 52.4417 57.128 52.955C57.018 53.4317 56.7247 53.8167 56.248 54.11C55.7713 54.4033 55.0013 54.55 53.938 54.55ZM83.8172 54.66C82.0572 54.66 80.3339 54.3667 78.6472 53.78C76.9972 53.1567 75.4939 52.2583 74.1372 51.085C72.8172 49.9117 71.7539 48.4817 70.9472 46.795C70.1772 45.0717 69.7922 43.1283 69.7922 40.965C69.7922 38.8017 70.1772 36.8767 70.9472 35.19C71.7539 33.5033 72.8172 32.0733 74.1372 30.9C75.4572 29.7267 76.9422 28.8283 78.5922 28.205C80.2422 27.5817 81.9472 27.27 83.7072 27.27C84.9905 27.27 86.2005 27.4533 87.3372 27.82C88.5105 28.1867 89.5189 28.6267 90.3622 29.14C91.2055 29.6533 91.8105 30.1667 92.1772 30.68C92.6539 31.12 93.0572 31.5417 93.3872 31.945C93.7172 32.3483 93.8272 32.8433 93.7172 33.43C93.6072 33.7967 93.4422 34.145 93.2222 34.475C93.0022 34.7683 92.7272 35.08 92.3972 35.41C91.5172 36.4 90.6555 36.7667 89.8122 36.51C89.3355 36.2533 88.8589 35.9783 88.3822 35.685C87.9055 35.3917 87.4105 35.1167 86.8972 34.86C86.4205 34.5667 85.9255 34.3283 85.4122 34.145C84.8989 33.9617 84.3305 33.87 83.7072 33.87C82.3139 33.87 81.0672 34.1817 79.9672 34.805C78.9039 35.3917 78.0605 36.2167 77.4372 37.28C76.8505 38.3433 76.5572 39.5717 76.5572 40.965C76.5572 42.3583 76.8505 43.605 77.4372 44.705C78.0605 45.7683 78.9039 46.6117 79.9672 47.235C81.0305 47.8217 82.2405 48.115 83.5972 48.115C84.2572 48.115 84.8805 48.0417 85.4672 47.895C86.0905 47.7117 86.6405 47.4917 87.1172 47.235C87.5939 46.9417 87.9789 46.6483 88.2722 46.355C88.6755 46.0983 89.0422 45.86 89.3722 45.64C89.7022 45.42 90.0505 45.31 90.4172 45.31C90.8572 45.31 91.2789 45.475 91.6822 45.805C92.1222 46.0983 92.5989 46.575 93.1122 47.235C93.5889 47.785 93.8455 48.3167 93.8822 48.83C93.9555 49.3433 93.8455 49.8383 93.5522 50.315C93.2955 50.7917 92.8555 51.2317 92.2322 51.635C91.7922 52.075 91.1322 52.5333 90.2522 53.01C89.4089 53.45 88.4189 53.835 87.2822 54.165C86.1822 54.495 85.0272 54.66 83.8172 54.66Z" fill="#F6F6F6"/>
<path d="M121.153 54.44C120.09 54.44 119.301 54.2383 118.788 53.835C118.275 53.4317 118.018 52.8817 118.018 52.185L118.403 50.37C118.11 50.8467 117.615 51.415 116.918 52.075C116.221 52.6983 115.305 53.2667 114.168 53.78C113.031 54.2567 111.656 54.495 110.043 54.495C108.32 54.495 106.688 54.1467 105.148 53.45C103.645 52.7167 102.306 51.7267 101.133 50.48C99.9965 49.1967 99.0798 47.7483 98.3832 46.135C97.7232 44.485 97.3932 42.725 97.3932 40.855C97.3932 39.0583 97.7232 37.3717 98.3832 35.795C99.0798 34.1817 100.015 32.7517 101.188 31.505C102.361 30.2583 103.7 29.2867 105.203 28.59C106.743 27.8567 108.356 27.49 110.043 27.49C111.546 27.49 112.811 27.6917 113.838 28.095C114.901 28.4983 115.8 29.0117 116.533 29.635C117.266 30.2217 117.871 30.845 118.348 31.505L118.018 29.91C118.018 29.1033 118.275 28.4983 118.788 28.095C119.301 27.655 120.108 27.435 121.208 27.435C122.235 27.435 122.968 27.6 123.408 27.93C123.848 28.2233 124.123 28.645 124.233 29.195C124.343 29.7083 124.398 30.295 124.398 30.955V51.085C124.398 51.7083 124.343 52.2767 124.233 52.79C124.123 53.3033 123.83 53.7067 123.353 54C122.913 54.2933 122.18 54.44 121.153 54.44ZM111.033 48.06C112.28 48.06 113.398 47.7483 114.388 47.125C115.378 46.5017 116.166 45.6583 116.753 44.595C117.376 43.495 117.688 42.285 117.688 40.965C117.688 39.535 117.376 38.2883 116.753 37.225C116.13 36.1617 115.305 35.3367 114.278 34.75C113.288 34.1267 112.17 33.815 110.923 33.815C109.566 33.815 108.356 34.145 107.293 34.805C106.23 35.4283 105.386 36.29 104.763 37.39C104.176 38.4533 103.883 39.6633 103.883 41.02C103.883 42.34 104.195 43.5317 104.818 44.595C105.441 45.6583 106.285 46.5017 107.348 47.125C108.448 47.7483 109.676 48.06 111.033 48.06ZM133.162 54.495C132.172 54.495 131.438 54.33 130.962 54C130.522 53.7067 130.247 53.3217 130.137 52.845C130.027 52.3317 129.972 51.7633 129.972 51.14V30.57C129.972 29.9833 130.027 29.4517 130.137 28.975C130.247 28.4983 130.54 28.1317 131.017 27.875C131.493 27.5817 132.227 27.435 133.217 27.435C134.097 27.435 134.757 27.545 135.197 27.765C135.637 27.985 135.93 28.26 136.077 28.59C136.223 28.92 136.297 29.25 136.297 29.58C136.333 29.91 136.37 30.1667 136.407 30.35L136.187 32.11C136.407 31.5233 136.773 30.955 137.287 30.405C137.8 29.855 138.423 29.36 139.157 28.92C139.89 28.4433 140.678 28.0767 141.522 27.82C142.402 27.5267 143.3 27.38 144.217 27.38C145.94 27.38 147.48 27.6917 148.837 28.315C150.193 28.9383 151.348 29.8183 152.302 30.955C153.292 32.0917 154.043 33.4483 154.557 35.025C155.07 36.565 155.327 38.3067 155.327 40.25V51.195C155.327 51.8183 155.253 52.3867 155.107 52.9C154.997 53.3767 154.722 53.7617 154.282 54.055C153.842 54.3483 153.09 54.495 152.027 54.495C151 54.495 150.248 54.33 149.772 54C149.295 53.7067 149.002 53.3217 148.892 52.845C148.782 52.3317 148.727 51.7633 148.727 51.14V40.195C148.727 38.875 148.488 37.7383 148.012 36.785C147.572 35.8317 146.912 35.0983 146.032 34.585C145.188 34.0717 144.107 33.815 142.787 33.815C141.503 33.815 140.385 34.09 139.432 34.64C138.478 35.1533 137.745 35.8867 137.232 36.84C136.718 37.7933 136.462 38.9117 136.462 40.195V51.195C136.462 51.8183 136.407 52.3867 136.297 52.9C136.187 53.3767 135.893 53.7617 135.417 54.055C134.977 54.3483 134.225 54.495 133.162 54.495ZM173.783 54.88C171.4 54.88 169.31 54.495 167.513 53.725C165.753 52.955 164.268 51.91 163.058 50.59C161.885 49.2333 160.986 47.73 160.363 46.08C159.776 44.3933 159.483 42.6517 159.483 40.855C159.483 38.215 160.088 35.8683 161.298 33.815C162.508 31.7617 164.176 30.1483 166.303 28.975C168.466 27.8017 170.941 27.215 173.728 27.215C175.708 27.215 177.45 27.5267 178.953 28.15C180.456 28.7733 181.703 29.5983 182.693 30.625C183.72 31.615 184.49 32.715 185.003 33.925C185.553 35.135 185.828 36.3083 185.828 37.445C185.828 39.3883 185.351 40.8 184.398 41.68C183.481 42.56 182.326 43 180.933 43H166.413C166.45 44.2467 166.835 45.3283 167.568 46.245C168.338 47.1617 169.291 47.8767 170.428 48.39C171.601 48.8667 172.793 49.105 174.003 49.105C174.92 49.105 175.726 49.05 176.423 48.94C177.156 48.83 177.78 48.7017 178.293 48.555C178.806 48.3717 179.246 48.1883 179.613 48.005C180.016 47.8217 180.383 47.6567 180.713 47.51C181.043 47.3633 181.355 47.2717 181.648 47.235C182.051 47.1983 182.455 47.29 182.858 47.51C183.261 47.73 183.591 48.115 183.848 48.665C184.068 49.0317 184.215 49.38 184.288 49.71C184.398 50.0033 184.453 50.2967 184.453 50.59C184.453 51.3233 184.013 52.02 183.133 52.68C182.253 53.3033 181.006 53.8167 179.393 54.22C177.816 54.66 175.946 54.88 173.783 54.88ZM166.413 39.095H177.688C178.311 39.095 178.788 39.0033 179.118 38.82C179.448 38.6 179.613 38.16 179.613 37.5C179.613 36.6567 179.356 35.905 178.843 35.245C178.33 34.5483 177.633 34.0167 176.753 33.65C175.873 33.2467 174.846 33.045 173.673 33.045C172.316 33.045 171.088 33.32 169.988 33.87C168.888 34.3833 168.008 35.0983 167.348 36.015C166.725 36.9317 166.413 37.9583 166.413 39.095Z" fill="white"/>
</svg>
