<svg width="48" height="47" viewBox="0 0 48 47" fill="none" xmlns="http://www.w3.org/2000/svg">
<rect width="48" height="47" rx="10" fill="black"/>
<path d="M20.0918 12.4903L10.6837 31.8675C10.3141 32.6322 10.1894 33.4923 10.3266 34.3305C10.4637 35.1687 10.856 35.9441 11.4499 36.5512C12.0439 37.1583 12.8107 37.5674 13.6457 37.7228C14.4806 37.8781 15.3432 37.7722 16.1158 37.4194L23.4669 34.0307C23.6446 33.9537 23.836 33.9129 24.0297 33.9106C24.2235 33.9084 24.4157 33.9447 24.5952 34.0176L32.0232 37.2341C32.655 37.5065 33.3448 37.6168 34.0299 37.5548C34.7151 37.4929 35.3739 37.2606 35.9465 36.8793C36.5192 36.498 36.9874 35.9796 37.3087 35.3712C37.63 34.7629 37.7942 34.0839 37.7863 33.396C37.7724 32.7517 37.6146 32.1188 37.3244 31.5434L27.4674 12.3906C27.1157 11.7112 26.5821 11.143 25.9262 10.7492C25.2704 10.3554 24.518 10.1516 23.753 10.1605C22.9881 10.1694 22.2407 10.3907 21.5941 10.7997C20.9476 11.2086 20.4274 11.7891 20.0916 12.4765L20.0918 12.4903ZM25.0186 13.6577L34.8756 32.8106C35 33.0621 35.0446 33.3457 35.0032 33.6233C34.9619 33.9009 34.8367 34.1592 34.6444 34.3636C34.4521 34.568 34.2019 34.7088 33.9274 34.7669C33.6528 34.8251 33.367 34.798 33.1084 34.6891L25.6805 31.4864C25.5813 31.445 25.4798 31.4094 25.3765 31.3798L25.266 21.8987C25.2618 21.5337 25.1127 21.1854 24.8517 20.9303C24.5906 20.6753 24.2389 20.5344 23.8739 20.5386C23.509 20.5429 23.1607 20.6919 22.9056 20.953C22.6505 21.2141 22.5096 21.5658 22.5139 21.9307L22.6243 31.4119C22.5217 31.4439 22.4211 31.4818 22.3229 31.5255L14.9717 34.9004C14.7156 35.0153 14.4305 35.0491 14.1547 34.9973C13.8789 34.9455 13.6255 34.8107 13.4285 34.6108C13.2315 34.4109 13.1003 34.1556 13.0525 33.879C13.0047 33.6025 13.0426 33.3179 13.1611 33.0636L22.5692 13.6863C22.6821 13.4595 22.8553 13.2683 23.0699 13.1337C23.2844 12.9991 23.532 12.9263 23.7852 12.9234C24.0385 12.9204 24.2876 12.9874 24.5053 13.117C24.7229 13.2466 24.9005 13.4337 25.0186 13.6577Z" fill="white"/>
</svg>
