<svg width="29" height="28" viewBox="0 0 29 28" fill="none" xmlns="http://www.w3.org/2000/svg">
<path d="M10.5825 2.38578L1.17442 21.7631C0.804867 22.5278 0.680152 23.3878 0.817278 24.226C0.954403 25.0642 1.3467 25.8397 1.94067 26.4467C2.53464 27.0538 3.30139 27.4629 4.13637 27.6183C4.97136 27.7736 5.83394 27.6677 6.60652 27.3149L13.9576 23.9263C14.1354 23.8492 14.3267 23.8084 14.5204 23.8061C14.7142 23.8039 14.9064 23.8403 15.086 23.9131L22.514 27.1296C23.1457 27.402 23.8355 27.5123 24.5207 27.4503C25.2058 27.3884 25.8647 27.1562 26.4373 26.7748C27.0099 26.3935 27.4781 25.8751 27.7994 25.2667C28.1207 24.6584 28.2849 23.9794 28.2771 23.2915C28.2631 22.6473 28.1053 22.0143 27.8151 21.4389L17.9581 2.28609C17.6064 1.60674 17.0728 1.03847 16.417 0.644694C15.7611 0.250918 15.0087 0.0471155 14.2438 0.0560271C13.4788 0.0649388 12.7314 0.286214 12.0849 0.695163C11.4383 1.10411 10.9182 1.68465 10.5823 2.37201L10.5825 2.38578ZM15.5094 3.55325L25.3663 22.7061C25.4907 22.9577 25.5353 23.2412 25.494 23.5188C25.4526 23.7964 25.3274 24.0547 25.1351 24.2591C24.9428 24.4635 24.6926 24.6043 24.4181 24.6624C24.1435 24.7206 23.8578 24.6935 23.5991 24.5846L16.1712 21.3819C16.0721 21.3405 15.9706 21.3049 15.8672 21.2753L15.7568 11.7942C15.7525 11.4292 15.6035 11.0809 15.3424 10.8258C15.0813 10.5708 14.7296 10.4299 14.3647 10.4341C13.9997 10.4384 13.6514 10.5874 13.3963 10.8485C13.1413 11.1096 13.0004 11.4613 13.0046 11.8262L13.1151 21.3074C13.0125 21.3394 12.9118 21.3773 12.8136 21.421L5.4624 24.7959C5.20633 24.9108 4.92126 24.9446 4.64544 24.8928C4.36961 24.841 4.1162 24.7062 3.91919 24.5063C3.72218 24.3064 3.59099 24.0511 3.54321 23.7745C3.49543 23.498 3.53334 23.2135 3.65186 22.9591L13.06 3.58179C13.1728 3.35504 13.346 3.16383 13.5606 3.02922C13.7751 2.89462 14.0227 2.82183 14.2759 2.81888C14.5292 2.81593 14.7784 2.88293 14.996 3.0125C15.2136 3.14207 15.3913 3.32919 15.5094 3.55325Z" fill="white"/>
</svg>
